<svg width="20" height="20" viewBox="0 0 20 20" fill="none" xmlns="http://www.w3.org/2000/svg">
<path d="M16.8749 13.8384V6.16093C17.3014 6.05164 17.6914 5.83143 18.0053 5.52267C18.3191 5.21392 18.5457 4.8276 18.662 4.40295C18.7783 3.97831 18.7801 3.53045 18.6673 3.10487C18.5545 2.67928 18.3311 2.29112 18.0198 1.97979C17.7085 1.66847 17.3203 1.44507 16.8947 1.33228C16.4692 1.21949 16.0213 1.22133 15.5967 1.33761C15.172 1.45389 14.7857 1.68046 14.4769 1.99433C14.1682 2.3082 13.948 2.69818 13.8387 3.12468H6.16117C6.05188 2.69818 5.83168 2.3082 5.52292 1.99433C5.21416 1.68046 4.82784 1.45389 4.4032 1.33761C3.97855 1.22133 3.5307 1.21949 3.10511 1.33228C2.67952 1.44507 2.29136 1.66847 1.98004 1.97979C1.66871 2.29112 1.44531 2.67928 1.33253 3.10487C1.21974 3.53045 1.22157 3.97831 1.33785 4.40295C1.45413 4.8276 1.68071 5.21392 1.99457 5.52267C2.30844 5.83143 2.69843 6.05164 3.12492 6.16093V13.8384C2.69843 13.9477 2.30844 14.1679 1.99457 14.4767C1.68071 14.7854 1.45413 15.1718 1.33785 15.5964C1.22157 16.0211 1.21974 16.4689 1.33253 16.8945C1.44531 17.3201 1.66871 17.7082 1.98004 18.0196C2.29136 18.3309 2.67952 18.5543 3.10511 18.6671C3.5307 18.7799 3.97855 18.778 4.4032 18.6618C4.82784 18.5455 5.21416 18.3189 5.52292 18.005C5.83168 17.6912 6.05188 17.3012 6.16117 16.8747H13.8387C13.948 17.3012 14.1682 17.6912 14.4769 18.005C14.7857 18.3189 15.172 18.5455 15.5967 18.6618C16.0213 18.778 16.4692 18.7799 16.8947 18.6671C17.3203 18.5543 17.7085 18.3309 18.0198 18.0196C18.3311 17.7082 18.5545 17.3201 18.6673 16.8945C18.7801 16.4689 18.7783 16.0211 18.662 15.5964C18.5457 15.1718 18.3191 14.7854 18.0053 14.4767C17.6914 14.1679 17.3014 13.9477 16.8749 13.8384ZM16.2499 2.49968C16.4972 2.49968 16.7388 2.57299 16.9444 2.71034C17.1499 2.8477 17.3102 3.04292 17.4048 3.27133C17.4994 3.49973 17.5241 3.75107 17.4759 3.99354C17.4277 4.23602 17.3086 4.45875 17.1338 4.63356C16.959 4.80838 16.7363 4.92743 16.4938 4.97566C16.2513 5.02389 16 4.99914 15.7716 4.90453C15.5432 4.80992 15.3479 4.6497 15.2106 4.44414C15.0732 4.23858 14.9999 3.99691 14.9999 3.74968C14.9999 3.41816 15.1316 3.10022 15.366 2.8658C15.6005 2.63138 15.9184 2.49968 16.2499 2.49968ZM2.49992 3.74968C2.49992 3.50245 2.57324 3.26078 2.71059 3.05522C2.84794 2.84966 3.04316 2.68944 3.27157 2.59483C3.49998 2.50022 3.75131 2.47547 3.99379 2.5237C4.23626 2.57193 4.45899 2.69098 4.63381 2.8658C4.80862 3.04061 4.92767 3.26334 4.97591 3.50582C5.02414 3.74829 4.99938 3.99963 4.90477 4.22803C4.81016 4.45644 4.64995 4.65167 4.44439 4.78902C4.23883 4.92637 3.99715 4.99968 3.74992 4.99968C3.4184 4.99968 3.10046 4.86798 2.86604 4.63356C2.63162 4.39914 2.49992 4.0812 2.49992 3.74968ZM3.74992 17.4997C3.5027 17.4997 3.26102 17.4264 3.05546 17.289C2.8499 17.1517 2.68968 16.9564 2.59507 16.728C2.50047 16.4996 2.47571 16.2483 2.52394 16.0058C2.57217 15.7633 2.69123 15.5406 2.86604 15.3658C3.04086 15.191 3.26359 15.0719 3.50606 15.0237C3.74854 14.9755 3.99987 15.0002 4.22828 15.0948C4.45669 15.1894 4.65191 15.3497 4.78926 15.5552C4.92661 15.7608 4.99992 16.0025 4.99992 16.2497C4.99992 16.5812 4.86823 16.8991 4.63381 17.1336C4.39939 17.368 4.08144 17.4997 3.74992 17.4997ZM13.8387 15.6247H6.16117C6.04886 15.1952 5.82419 14.8033 5.51026 14.4893C5.19632 14.1754 4.80445 13.9507 4.37492 13.8384V6.16093C4.80445 6.04862 5.19632 5.82395 5.51026 5.51001C5.82419 5.19608 6.04886 4.80421 6.16117 4.37468H13.8387C13.951 4.80421 14.1757 5.19608 14.4896 5.51001C14.8035 5.82395 15.1954 6.04862 15.6249 6.16093V13.8384C15.1951 13.9501 14.8029 14.1746 14.4889 14.4886C14.1749 14.8027 13.9504 15.1949 13.8387 15.6247ZM16.2499 17.4997C16.0027 17.4997 15.761 17.4264 15.5555 17.289C15.3499 17.1517 15.1897 16.9564 15.0951 16.728C15.0005 16.4996 14.9757 16.2483 15.0239 16.0058C15.0722 15.7633 15.1912 15.5406 15.366 15.3658C15.5409 15.191 15.7636 15.0719 16.0061 15.0237C16.2485 14.9755 16.4999 15.0002 16.7283 15.0948C16.9567 15.1894 17.1519 15.3497 17.2893 15.5552C17.4266 15.7608 17.4999 16.0025 17.4999 16.2497C17.4994 16.581 17.3676 16.8987 17.1333 17.133C16.8989 17.3673 16.5813 17.4992 16.2499 17.4997Z" fill="white"/>
</svg>
