<svg width="20" height="20" viewBox="0 0 20 20" fill="none" xmlns="http://www.w3.org/2000/svg">
<path d="M5.97485 8.92205L9.99985 10.0004L14.0249 11.0787L18.0494 12.1575C19.0236 8.52121 17.4365 4.80288 14.394 2.91705C13.6995 2.48719 12.9457 2.16177 12.1565 1.95121C11.2507 1.70751 10.3103 1.61848 9.37485 1.68788C5.94277 1.94621 2.89152 4.33038 1.95068 7.8433L5.97485 8.92205Z" stroke="white" stroke-width="1.66667" stroke-linecap="round" stroke-linejoin="round"/>
<path d="M6.78027 9.13784C6.78027 9.13784 7.11819 7.07159 8.46236 5.27492C9.80652 3.47826 12.1565 1.95117 12.1565 1.95117C12.1565 1.95117 13.4286 4.44909 13.6944 6.67701C13.9603 8.90492 13.2194 10.8637 13.2194 10.8637" stroke="white" stroke-width="1.66667" stroke-linecap="round" stroke-linejoin="round"/>
<path d="M1.95067 7.84348L5.97525 8.92181L9.99984 10.0001M9.99984 10.0001L14.024 11.0785L18.049 12.1572M9.99984 10.0001L7.70817 18.3335M1.6665 18.3335H18.3332M9.37484 1.68806C10.3102 1.61839 11.2507 1.70714 12.1565 1.95056C12.9457 2.16138 13.6996 2.48708 14.394 2.91723" stroke="white" stroke-width="1.66667" stroke-linecap="round" stroke-linejoin="round"/>
</svg>
