<svg width="24" height="24" viewBox="0 0 24 24" fill="none" xmlns="http://www.w3.org/2000/svg">
<rect width="24" height="24" rx="12" fill="#4F4E50" fill-opacity="0.7"/>
<path fill-rule="evenodd" clip-rule="evenodd" d="M12.5305 8.83688L15.2145 8.70349C15.3792 8.69531 15.5061 8.82219 15.4979 8.98689L15.3645 11.6709C15.3563 11.8356 15.2162 11.9758 15.0515 11.9839C14.8868 11.9921 14.7599 11.8652 14.7681 11.7005L14.8657 9.73651L9.20214 15.4001C9.07989 15.5223 8.89106 15.5317 8.78039 15.421C8.66971 15.3103 8.6791 15.1215 8.80135 14.9993L14.4649 9.33572L12.5009 9.43333C12.3362 9.44151 12.2093 9.31463 12.2175 9.14993C12.2256 8.98522 12.3658 8.84507 12.5305 8.83688Z" fill="#F5F5F6"/>
</svg>
