<svg width="46" height="47" viewBox="0 0 46 47" fill="none" xmlns="http://www.w3.org/2000/svg">
<rect y="0.5" width="46" height="46" rx="23" fill="#4F4E50" fill-opacity="0.7"/>
<path fill-rule="evenodd" clip-rule="evenodd" d="M17.9941 19.6591L14.1757 23.1159C13.9414 23.328 13.9414 23.672 14.1757 23.8841L17.9941 27.3409C18.2284 27.553 18.6083 27.553 18.8426 27.3409C19.077 27.1288 19.077 26.7849 18.8426 26.5727L16.0485 24.0432H31.4C31.7314 24.0432 32 23.8 32 23.5C32 23.2 31.7314 22.9568 31.4 22.9568H16.0485L18.8426 20.4273C19.077 20.2151 19.077 19.8712 18.8426 19.6591C18.6083 19.447 18.2284 19.447 17.9941 19.6591Z" fill="#F5F5F6"/>
</svg>
