<svg width="46" height="46" viewBox="0 0 46 46" fill="none" xmlns="http://www.w3.org/2000/svg">
<rect width="46" height="46" rx="23" fill="#4F4E50" fill-opacity="0.7"/>
<path fill-rule="evenodd" clip-rule="evenodd" d="M24.0162 16.9364L29.1605 16.6807C29.4762 16.665 29.7194 16.9082 29.7037 17.2239L29.448 22.3682C29.4323 22.6839 29.1637 22.9526 28.848 22.9682C28.5323 22.9839 28.2891 22.7407 28.3048 22.4251L28.4919 18.6607L17.6368 29.5158C17.4025 29.7501 17.0406 29.7681 16.8284 29.556C16.6163 29.3438 16.6343 28.9819 16.8686 28.7476L27.7237 17.8925L23.9593 18.0796C23.6437 18.0953 23.4005 17.8521 23.4162 17.5364C23.4318 17.2207 23.7005 16.9521 24.0162 16.9364Z" fill="#F5F5F6"/>
</svg>
