<svg width="24" height="24" viewBox="0 0 24 24" fill="none" xmlns="http://www.w3.org/2000/svg">
<circle cx="12" cy="12" r="12" fill="white" fill-opacity="0.19"/>
<path fill-rule="evenodd" clip-rule="evenodd" d="M15.8745 13.6946L12.2131 17.356C11.9884 17.5807 11.6242 17.5807 11.3995 17.356L7.73815 13.6946C7.51347 13.47 7.51347 13.1057 7.73815 12.881C7.96283 12.6563 8.3271 12.6563 8.55178 12.881L11.231 15.5602L11.3782 7.30386C11.3782 6.98611 11.6358 6.72853 11.9535 6.72853C12.2712 6.72853 12.5288 6.98611 12.5288 7.30386L12.3816 15.5602L15.0608 12.881C15.2855 12.6563 15.6498 12.6563 15.8745 12.881C16.0991 13.1057 16.0991 13.47 15.8745 13.6946Z" fill="white"/>
</svg>
