<svg width="20" height="21" viewBox="0 0 20 21" fill="none" xmlns="http://www.w3.org/2000/svg">
<path fill-rule="evenodd" clip-rule="evenodd" d="M6 0.5C6.55228 0.5 7 0.947715 7 1.5V2.5H13V1.5C13 0.947715 13.4477 0.5 14 0.5C14.5523 0.5 15 0.947715 15 1.5V2.5H17C18.6569 2.5 20 3.84315 20 5.5V17.5C20 19.1569 18.6569 20.5 17 20.5H3C1.34315 20.5 0 19.1569 0 17.5V5.5C0 3.84315 1.34315 2.5 3 2.5H5V1.5C5 0.947715 5.44772 0.5 6 0.5ZM5 4.5H3C2.44772 4.5 2 4.94772 2 5.5V17.5C2 18.0523 2.44772 18.5 3 18.5H17C17.5523 18.5 18 18.0523 18 17.5V5.5C18 4.94772 17.5523 4.5 17 4.5H15V5.5C15 6.05228 14.5523 6.5 14 6.5C13.4477 6.5 13 6.05228 13 5.5V4.5H7V5.5C7 6.05228 6.55228 6.5 6 6.5C5.44772 6.5 5 6.05228 5 5.5V4.5ZM4 9.5C4 8.94772 4.44772 8.5 5 8.5H15C15.5523 8.5 16 8.94772 16 9.5C16 10.0523 15.5523 10.5 15 10.5H5C4.44772 10.5 4 10.0523 4 9.5Z" fill="#FFA1A4"/>
</svg>
