<svg width="44" height="44" viewBox="0 0 44 44" fill="none" xmlns="http://www.w3.org/2000/svg">
<rect width="44" height="44" fill="#4F4E50"/>
<path d="M28.3042 22.8089L27.7543 22.2989L28.3042 22.8089ZM21.2332 15.7378L21.7432 16.2877L21.2332 15.7378ZM31.6616 14.2723L32.4053 14.3696L31.6616 14.2723ZM29.7698 12.3805L29.867 13.1241L29.7698 12.3805ZM16.4951 22.6506L17.1685 22.9808L16.4951 22.6506ZM21.3915 27.547L21.0613 26.8736L21.3915 27.547ZM18.228 20.1572C17.9351 19.8643 17.4602 19.8643 17.1673 20.1572C16.8745 20.4501 16.8745 20.925 17.1673 21.2179L18.228 20.1572ZM22.8242 26.8747C23.1171 27.1676 23.592 27.1676 23.8849 26.8747C24.1778 26.5818 24.1778 26.107 23.8849 25.8141L22.8242 26.8747ZM16.4602 28.6425C16.7531 28.3496 16.7531 27.8747 16.4602 27.5818C16.1673 27.2889 15.6925 27.2889 15.3996 27.5818L16.4602 28.6425ZM12.5712 30.4103C12.2783 30.7032 12.2783 31.178 12.5712 31.4709C12.864 31.7638 13.3389 31.7638 13.6318 31.4709L12.5712 30.4103ZM14.3389 26.5212C14.6318 26.2283 14.6318 25.7534 14.3389 25.4605C14.046 25.1676 13.5712 25.1676 13.2783 25.4605L14.3389 26.5212ZM11.864 26.8747C11.5712 27.1676 11.5712 27.6425 11.864 27.9354C12.1569 28.2283 12.6318 28.2283 12.9247 27.9354L11.864 26.8747ZM18.5816 30.7638C18.8745 30.4709 18.8745 29.996 18.5816 29.7032C18.2887 29.4103 17.8138 29.4103 17.5209 29.7032L18.5816 30.7638ZM16.1067 31.1174C15.8138 31.4103 15.8138 31.8851 16.1067 32.178C16.3996 32.4709 16.8745 32.4709 17.1673 32.178L16.1067 31.1174ZM20.5968 31.082L21.3393 30.9759L20.5968 31.082ZM25.7587 27.6172L26.5012 27.5111L25.7587 27.6172ZM12.96 23.4453L13.0661 22.7028L13.0661 22.7028L12.96 23.4453ZM16.4249 18.2834L16.3188 19.0259L16.3188 19.0259L16.4249 18.2834ZM19.751 26.63L17.4121 24.2911L16.3514 25.3518L18.6903 27.6906L19.751 26.63ZM27.7543 22.2989C25.8607 24.3406 22.786 26.028 21.0613 26.8736L21.7216 28.2204C23.4618 27.3673 26.7575 25.5795 28.8541 23.3189L27.7543 22.2989ZM17.1685 22.9808C18.014 21.256 19.7015 18.1814 21.7432 16.2877L20.7232 15.1879C18.4625 17.2846 16.6748 20.5802 15.8216 22.3205L17.1685 22.9808ZM30.9179 14.1751C30.6141 16.4984 29.8068 20.086 27.7543 22.2989L28.8541 23.3189C31.2496 20.7361 32.0968 16.7286 32.4053 14.3696L30.9179 14.1751ZM21.7432 16.2877C23.9561 14.2353 27.5437 13.428 29.867 13.1241L29.6725 11.6368C27.3135 11.9453 23.306 12.7924 20.7232 15.1879L21.7432 16.2877ZM32.4053 14.3696C32.6164 12.7557 31.2864 11.4257 29.6725 11.6368L29.867 13.1241C30.504 13.0408 31.0013 13.5381 30.9179 14.1751L32.4053 14.3696ZM17.4121 24.2911C17.0489 23.9279 16.9602 23.4057 17.1685 22.9808L15.8216 22.3205C15.3135 23.3571 15.5636 24.564 16.3514 25.3518L17.4121 24.2911ZM18.6903 27.6906C19.4781 28.4784 20.685 28.7286 21.7216 28.2204L21.0613 26.8736C20.6364 27.0819 20.1141 26.9932 19.751 26.63L18.6903 27.6906ZM17.1673 21.2179L22.8242 26.8747L23.8849 25.8141L18.228 20.1572L17.1673 21.2179ZM15.3996 27.5818L12.5712 30.4103L13.6318 31.4709L16.4602 28.6425L15.3996 27.5818ZM13.2783 25.4605L11.864 26.8747L12.9247 27.9354L14.3389 26.5212L13.2783 25.4605ZM17.5209 29.7032L16.1067 31.1174L17.1673 32.178L18.5816 30.7638L17.5209 29.7032ZM23.1778 16.9752C22.1038 18.0492 22.1038 19.7904 23.1778 20.8643L24.2384 19.8037C23.7503 19.3155 23.7503 18.524 24.2384 18.0359L23.1778 16.9752ZM23.1778 20.8643C24.2517 21.9383 25.9929 21.9383 27.0668 20.8643L26.0062 19.8037C25.518 20.2918 24.7266 20.2918 24.2384 19.8037L23.1778 20.8643ZM27.0668 20.8643C28.1408 19.7904 28.1408 18.0492 27.0668 16.9752L26.0062 18.0359C26.4943 18.524 26.4943 19.3155 26.0062 19.8037L27.0668 20.8643ZM27.0668 16.9752C25.9929 15.9013 24.2517 15.9013 23.1778 16.9752L24.2384 18.0359C24.7266 17.5477 25.518 17.5477 26.0062 18.0359L27.0668 16.9752ZM24.9455 27.9354L21.7635 31.1174L22.8242 32.178L26.0062 28.996L24.9455 27.9354ZM21.3393 30.9759L20.915 28.0061L19.4301 28.2182L19.8544 31.1881L21.3393 30.9759ZM24.7334 25.7434L25.0162 27.7233L26.5012 27.5111L26.2183 25.5312L24.7334 25.7434ZM21.7635 31.1174C21.6179 31.263 21.3684 31.1799 21.3393 30.9759L19.8544 31.1881C20.0583 32.6157 21.8045 33.1977 22.8242 32.178L21.7635 31.1174ZM26.0062 28.996C26.3957 28.6066 26.5791 28.0564 26.5012 27.5111L25.0162 27.7233C25.0274 27.8011 25.0012 27.8797 24.9455 27.9354L26.0062 28.996ZM15.046 18.0359L11.864 21.2179L12.9247 22.2786L16.1067 19.0966L15.046 18.0359ZM12.854 24.1877L15.8238 24.612L16.036 23.1271L13.0661 22.7028L12.854 24.1877ZM18.5108 17.8238L16.5309 17.5409L16.3188 19.0259L18.2987 19.3087L18.5108 17.8238ZM11.864 21.2179C10.8443 22.2376 11.4264 23.9838 12.854 24.1877L13.0661 22.7028C12.8622 22.6737 12.779 22.4242 12.9247 22.2786L11.864 21.2179ZM16.1067 19.0966C16.1623 19.0409 16.2409 19.0147 16.3188 19.0259L16.5309 17.5409C15.9856 17.463 15.4355 17.6464 15.046 18.0359L16.1067 19.0966Z" fill="white"/>
</svg>
