<svg width="30" height="30" viewBox="0 0 30 30" fill="none" xmlns="http://www.w3.org/2000/svg">
<path d="M16.4558 0.833496C18.0496 0.837746 18.8585 0.846246 19.5569 0.866079L19.8318 0.875996C20.1491 0.887329 20.4622 0.901496 20.8404 0.918496C22.3478 0.989329 23.3763 1.22733 24.2787 1.57725C25.2137 1.93708 26.0013 2.42441 26.789 3.21066C27.5097 3.91862 28.0671 4.77533 28.4224 5.721C28.7723 6.62341 29.0103 7.65191 29.0812 9.16066C29.0982 9.5375 29.1123 9.85058 29.1237 10.1693L29.1322 10.4442C29.1534 11.1412 29.1619 11.9501 29.1648 13.5438L29.1662 14.6007V16.4565C29.1696 17.4898 29.1588 18.5231 29.1336 19.5562L29.1251 19.831C29.1138 20.1497 29.0996 20.4628 29.0826 20.8397C29.0118 22.3484 28.7709 23.3755 28.4224 24.2793C28.0671 25.225 27.5097 26.0817 26.789 26.7897C26.081 27.5103 25.2243 28.0678 24.2787 28.4231C23.3763 28.773 22.3478 29.011 20.8404 29.0818L19.8318 29.1243L19.5569 29.1328C18.8585 29.1527 18.0496 29.1626 16.4558 29.1654L15.399 29.1668H13.5446C12.5108 29.1705 11.477 29.1596 10.4435 29.1342L10.1687 29.1257C9.83237 29.113 9.49614 29.0984 9.16 29.0818C7.65267 29.011 6.62417 28.773 5.72034 28.4231C4.77518 28.0676 3.91896 27.5101 3.21142 26.7897C2.49026 26.0818 1.93232 25.2251 1.57659 24.2793C1.22667 23.3769 0.98867 22.3484 0.917837 20.8397L0.875337 19.831L0.868254 19.5562C0.842139 18.5232 0.830332 17.4898 0.832837 16.4565V13.5438C0.828916 12.5105 0.839306 11.4772 0.864004 10.4442L0.87392 10.1693C0.885254 9.85058 0.89942 9.5375 0.91642 9.16066C0.987254 7.65191 1.22525 6.62483 1.57517 5.721C1.93174 4.77494 2.49065 3.9182 3.21284 3.21066C3.91997 2.49036 4.77569 1.93293 5.72034 1.57725C6.62417 1.22733 7.65125 0.989329 9.16 0.918496C9.53684 0.901496 9.85134 0.887329 10.1687 0.875996L10.4435 0.867496C11.4765 0.842326 12.5098 0.831464 13.5432 0.834913L16.4558 0.833496ZM14.9995 7.91683C13.1209 7.91683 11.3192 8.66311 9.99083 9.99149C8.66245 11.3199 7.91617 13.1215 7.91617 15.0002C7.91617 16.8788 8.66245 18.6805 9.99083 20.0088C11.3192 21.3372 13.1209 22.0835 14.9995 22.0835C16.8781 22.0835 18.6798 21.3372 20.0082 20.0088C21.3366 18.6805 22.0828 16.8788 22.0828 15.0002C22.0828 13.1215 21.3366 11.3199 20.0082 9.99149C18.6798 8.66311 16.8781 7.91683 14.9995 7.91683ZM14.9995 10.7502C15.5576 10.7501 16.1103 10.8599 16.626 11.0734C17.1416 11.2869 17.6102 11.5999 18.0049 11.9945C18.3996 12.389 18.7128 12.8575 18.9264 13.3731C19.1401 13.8887 19.2501 14.4413 19.2502 14.9995C19.2503 15.5576 19.1405 16.1102 18.927 16.6259C18.7135 17.1416 18.4005 17.6102 18.0059 18.0049C17.6113 18.3996 17.1429 18.7127 16.6273 18.9264C16.1117 19.14 15.559 19.2501 15.0009 19.2502C13.8737 19.2502 12.7927 18.8024 11.9957 18.0054C11.1987 17.2083 10.7509 16.1273 10.7509 15.0002C10.7509 13.873 11.1987 12.792 11.9957 11.995C12.7927 11.1979 13.8737 10.7502 15.0009 10.7502M22.4384 5.79183C21.9688 5.79183 21.5183 5.9784 21.1863 6.31049C20.8542 6.64259 20.6676 7.09301 20.6676 7.56266C20.6676 8.03232 20.8542 8.48274 21.1863 8.81483C21.5183 9.14693 21.9688 9.3335 22.4384 9.3335C22.9081 9.3335 23.3585 9.14693 23.6906 8.81483C24.0227 8.48274 24.2093 8.03232 24.2093 7.56266C24.2093 7.09301 24.0227 6.64259 23.6906 6.31049C23.3585 5.9784 22.9081 5.79183 22.4384 5.79183Z" fill="#FFA1A4"/>
</svg>
