<svg width="18" height="21" viewBox="0 0 18 21" fill="none" xmlns="http://www.w3.org/2000/svg">
<path fill-rule="evenodd" clip-rule="evenodd" d="M13.9497 4.55025C11.2161 1.81658 6.78392 1.81658 4.05025 4.55025C1.31658 7.28392 1.31658 11.7161 4.05025 14.4497L8.29374 18.6932C8.68398 19.0835 9.31589 19.0836 9.70669 18.6928L13.9497 14.4497C16.6834 11.7161 16.6834 7.28392 13.9497 4.55025ZM2.63604 3.13604C6.15076 -0.37868 11.8492 -0.37868 15.364 3.13604C18.8787 6.65076 18.8787 12.3492 15.364 15.864L11.8617 19.3662C11.8303 19.3976 11.8754 19.3525 11.844 19.3839L11.1209 20.107C9.94961 21.2783 8.05137 21.2793 6.87952 20.1074L2.63604 15.864C-0.87868 12.3492 -0.87868 6.65076 2.63604 3.13604ZM9 7.5C7.89543 7.5 7 8.39543 7 9.5C7 10.6046 7.89543 11.5 9 11.5C10.1046 11.5 11 10.6046 11 9.5C11 8.39543 10.1046 7.5 9 7.5ZM5 9.5C5 7.29086 6.79086 5.5 9 5.5C11.2091 5.5 13 7.29086 13 9.5C13 11.7091 11.2091 13.5 9 13.5C6.79086 13.5 5 11.7091 5 9.5Z" fill="#FFA1A4"/>
</svg>
