<svg width="17" height="18" viewBox="0 0 17 18" fill="none" xmlns="http://www.w3.org/2000/svg">
<path d="M16.3751 16.8752L12.5749 13.0751M12.5749 13.0751C13.225 12.425 13.7406 11.6533 14.0924 10.804C14.4442 9.95473 14.6252 9.04446 14.6252 8.12518C14.6252 7.2059 14.4442 6.29563 14.0924 5.44633C13.7406 4.59703 13.225 3.82533 12.5749 3.17531C11.9249 2.52528 11.1532 2.00965 10.3039 1.65786C9.45461 1.30607 8.54433 1.125 7.62506 1.125C6.70578 1.125 5.79551 1.30607 4.94621 1.65786C4.0969 2.00965 3.32521 2.52528 2.67518 3.17531C1.36239 4.48809 0.624878 6.26862 0.624878 8.12518C0.624878 9.98174 1.36239 11.7623 2.67518 13.0751C3.98797 14.3878 5.76849 15.1254 7.62506 15.1254C9.48162 15.1254 11.2621 14.3878 12.5749 13.0751Z" stroke="white" stroke-linecap="round" stroke-linejoin="round"/>
</svg>
